<svg width="34" height="33" viewBox="0 0 34 33" fill="none" xmlns="http://www.w3.org/2000/svg">
<path d="M24.6002 3.07222C24.3374 1.81896 23.1962 0.872559 21.8313 0.872559C21.5193 0.872559 21.2661 1.11837 21.2661 1.42247C21.2661 1.72658 21.5193 1.97239 21.8313 1.97239C22.7661 1.97239 23.5269 2.71258 23.5269 3.62214C23.5269 4.5317 22.7661 5.27189 21.8313 5.27189C21.5193 5.27189 21.2661 5.5177 21.2661 5.8218C21.2661 6.12591 21.5193 6.37172 21.8313 6.37172C23.1957 6.37172 24.3374 5.42531 24.6002 4.17205H32.0048V9.1213H1.48442V4.17205H9.3971H11.0927C11.4047 4.17205 11.6579 3.92624 11.6579 3.62214C11.6579 3.31804 11.4047 3.07222 11.0927 3.07222H10.0663C10.3003 2.43322 10.922 1.97239 11.6579 1.97239C12.5927 1.97239 13.3534 2.71258 13.3534 3.62214C13.3534 4.5317 12.5927 5.27189 11.6579 5.27189C11.3459 5.27189 11.0927 5.5177 11.0927 5.8218C11.0927 6.12591 11.3459 6.37172 11.6579 6.37172C13.2161 6.37172 14.4838 5.13826 14.4838 3.62214C14.4838 2.10602 13.2161 0.872559 11.6579 0.872559C10.2935 0.872559 9.1518 1.81896 8.88899 3.07222H0.354034V10.2211V32.2178H33.1351V10.2211V3.07222H24.6002ZM32.0048 31.1179H1.48442V10.2211H32.0048V31.1179Z" fill="white"/>
</svg>
